<?xml version="1.0"?><svg width="640" height="480" xmlns="http://www.w3.org/2000/svg">
 <title>Restaurant no border</title>
 <g>
  <title>Layer 1</title>
  <switch>
   <g>
    <linearGradient gradientUnits="userSpaceOnUse" id="XMLID_1_" x1="424.3672" x2="455.1484" y1="227.7358" y2="227.7358">
     <stop offset="0" stop-color="#E5E5E5"/>
     <stop offset="0.1696" stop-color="#E2E2E2"/>
     <stop offset="0.3059" stop-color="#D8D8D8"/>
     <stop offset="0.4306" stop-color="#C7C7C7"/>
     <stop offset="0.5484" stop-color="#B0B0B0"/>
     <stop offset="0.6614" stop-color="#919191"/>
     <stop offset="0.7707" stop-color="#6B6B6B"/>
     <stop offset="0.8772" stop-color="#3E3E3E"/>
     <stop offset="0.9788" stop-color="#0C0C0C"/>
     <stop offset="1" stop-color="#000000"/>
    </linearGradient>
    <linearGradient gradientUnits="userSpaceOnUse" id="XMLID_2_" x1="30.8516" x2="0.0713" y1="227.376" y2="227.376">
     <stop offset="0" stop-color="#E5E5E5"/>
     <stop offset="0.2675" stop-color="#E2E2E2"/>
     <stop offset="0.4824" stop-color="#D8D8D8"/>
     <stop offset="0.679" stop-color="#C7C7C7"/>
     <stop offset="0.8635" stop-color="#B0B0B0"/>
     <stop offset="1" stop-color="#999999"/>
    </linearGradient>
    <linearGradient gradientUnits="userSpaceOnUse" id="XMLID_3_" x1="227.7358" x2="227.7358" y1="30.8521" y2="0.0718">
     <stop offset="0" stop-color="#E5E5E5"/>
     <stop offset="0.2675" stop-color="#E2E2E2"/>
     <stop offset="0.4824" stop-color="#D8D8D8"/>
     <stop offset="0.679" stop-color="#C7C7C7"/>
     <stop offset="0.8635" stop-color="#B0B0B0"/>
     <stop offset="1" stop-color="#999999"/>
    </linearGradient>
    <linearGradient gradientUnits="userSpaceOnUse" id="XMLID_4_" x1="227.376" x2="227.376" y1="423.8994" y2="454.6797">
     <stop offset="0" stop-color="#E5E5E5"/>
     <stop offset="0.1696" stop-color="#E2E2E2"/>
     <stop offset="0.3059" stop-color="#D8D8D8"/>
     <stop offset="0.4306" stop-color="#C7C7C7"/>
     <stop offset="0.5484" stop-color="#B0B0B0"/>
     <stop offset="0.6614" stop-color="#919191"/>
     <stop offset="0.7707" stop-color="#6B6B6B"/>
     <stop offset="0.8772" stop-color="#3E3E3E"/>
     <stop offset="0.9788" stop-color="#0C0C0C"/>
     <stop offset="1" stop-color="#000000"/>
    </linearGradient>
    <path clip-rule="evenodd" d="m400.347992,402.848999c1.042999,-11.987 1.042999,-23.471985 0,-35.424011c-1.151978,-11.987 -2.052979,-25.415985 -6.444977,-35.423981c-4.391022,-10.115997 -8.963013,-19.511993 -20.123016,-24.156006c-11.484009,-4.606995 -34.632996,-5.544006 -47.484009,-3.20401c-12.815979,2.269012 -21.778992,6.696014 -28.97998,16.88501c-7.270996,10.151001 -12.061005,24.372009 -14.507996,43.487c-7.199005,4.247986 -14.832001,5.903992 -23.328003,4.824005c-8.604004,-1.223999 -20.375015,-5.436005 -27.396011,-11.268005c-7.020004,-5.868011 -11.843002,-13.463989 -14.470993,-23.328003l50.722992,0l0,-21.743988l-207.720989,0l0,20.915985l111.096996,0c1.512009,14.472015 4.319,27.071991 8.855011,38.627991c4.463989,11.484009 10.223999,21.240021 17.71199,29.808014c67.356003,0 134.710983,0 202.068985,0z" fill="#999999" fill-rule="evenodd"/>
    <path clip-rule="evenodd" d="m342.674011,183.852997c29.987976,0 54.323975,24.337006 54.323975,54.324005c0,29.987 -24.335999,54.324005 -54.323975,54.324005c-29.986023,0 -54.322021,-24.337006 -54.322021,-54.324005c0,-29.987 24.335999,-54.324005 54.322021,-54.324005" fill="#999999" fill-rule="evenodd"/>
    <path clip-rule="evenodd" d="m60.651001,299.816986c14.614998,-44.999985 56.556,-75.456985 103.824005,-75.456985c47.304001,0 89.243988,30.457001 103.859009,75.456985l-207.683014,0z" fill="#999999" fill-rule="evenodd"/>
    <path clip-rule="evenodd" d="m148.382996,196.748993c-6.373001,-8.927994 -8.425003,-17.099991 -6.444,-24.947998c2.052002,-7.919998 6.695999,-17.531998 18.503998,-21.743988c11.808014,-4.104004 35.460007,0.935989 51.516006,-3.20401c15.875,-4.283997 35.279999,-8.136002 43.488998,-22.535995c8.027008,-14.688004 9.68399,-35.784004 4.824005,-64.404003c-0.252014,20.952 -9.469009,35.388012 -28.189011,44.280003c-18.899994,8.67601 -62.207993,2.015999 -83.69899,8.064011c-21.601006,6.119987 -37.332001,16.703987 -44.281006,28.151985c-6.839996,11.412003 -4.246994,29.844009 3.205002,39.456009c7.450005,9.396011 20.949997,14.975998 41.074997,16.883987z" fill="#999999" fill-rule="evenodd"/>
    <path clip-rule="evenodd" d="m393.363007,397.269012c1.042999,-11.987 1.042999,-23.472015 0,-35.424011c-1.152008,-11.987 -2.053009,-25.416016 -6.445007,-35.424011c-4.390991,-10.115997 -8.963013,-19.511993 -20.122986,-24.155975c-11.484009,-4.607025 -34.633026,-5.544006 -47.484009,-3.20401c-12.81601,2.268982 -21.778992,6.695984 -28.980011,16.88501c-7.270996,10.15097 -12.096008,24.371979 -14.471008,43.487c-7.163971,4.247986 -14.903992,5.903992 -23.36499,4.823975c-8.530991,-1.223999 -20.375,-5.435974 -27.358994,-11.267975c-7.020004,-5.868011 -11.807999,-13.46402 -14.507004,-23.328003l50.723999,0l0,-21.744019l-207.685986,0l0,20.916016l111.096004,0c1.513,14.471985 4.319977,27.071991 8.855988,38.627991c4.463989,11.484009 10.224014,21.23999 17.71199,29.808014c67.319,0 134.675018,0 202.032013,0z" fill="#7f0000" fill-rule="evenodd"/>
    <path clip-rule="evenodd" d="m335.714996,178.332993c29.985992,0 54.324005,24.337006 54.324005,54.324005c0,29.986008 -24.338013,54.32399 -54.324005,54.32399c-29.985992,0 -54.324005,-24.337982 -54.324005,-54.32399c0,-29.987 24.338013,-54.324005 54.324005,-54.324005" fill="#7f0000" fill-rule="evenodd"/>
    <path clip-rule="evenodd" d="m53.667,294.237c14.615997,-45 56.556999,-75.455994 103.859993,-75.455994c47.269012,0 89.208008,30.455994 103.824997,75.455994l-207.685001,0l0.000011,0z" fill="#7f0000" fill-rule="evenodd"/>
    <path clip-rule="evenodd" d="m141.399002,191.205002c-6.372009,-9 -8.423996,-17.100006 -6.444,-24.984009c2.016998,-7.919998 6.768997,-17.567993 18.539993,-21.707993c11.809006,-4.139999 35.460007,0.936005 51.516006,-3.240005c15.912003,-4.283997 35.207993,-8.136002 43.453003,-22.535995c8.026993,-14.687996 9.684006,-35.783997 4.82399,-64.403999c-0.179993,20.952003 -9.431992,35.388 -28.151993,44.279999c-19.007004,8.676003 -62.100006,2.015999 -83.736008,8.063004c-21.599991,6.119995 -37.331993,16.703995 -44.279991,28.152c-6.840004,11.412003 -4.284004,29.843994 3.239998,39.455994c7.486,9.469009 20.843002,14.977005 41.039001,16.921005z" fill="#7f0000" fill-rule="evenodd"/>
   </g>
  </switch>
 </g>
</svg>