<svg xmlns="http://www.w3.org/2000/svg" width="722" height="722" viewBox="0 0 722 722"><style>.a{fill:#4ab0ea;}</style><path d="M233.5 284.5C246.5 272.9 262.4 263.3 280.1 261.8 301.3 260.7 323 267.1 339.5 280.5 347.9 287.3 354.5 296.1 359.8 305.4 366.9 292.2 377.4 280.8 390.4 273.4 405.6 264.7 423.6 260.4 441.1 262.2 459.7 264.4 476.1 275 489.2 287.8 512 310.5 526.7 341 530.8 372.9 535.1 407.4 521.4 442.2 499.4 468.5 493.8 475.2 487.6 481.4 481 487.1 492.2 496.8 502.3 508.2 507.9 522 514.5 537.2 515.4 554.6 510.6 570.4 506.1 585.7 496.4 599.1 484.5 609.5 472.7 619.8 458.7 627.6 444.1 633.2 421.1 642.2 396.5 646.3 371.9 647.4 336 649 299.2 645.1 265.9 631.1 249.4 624.2 233.9 614.5 221.7 601.4 210.3 589.3 202.3 573.6 200.7 556.9 198.8 540.2 203.8 523.1 213.2 509.2 219.3 499.8 227.6 492.3 236.1 485.2 233.1 482.1 229.9 479.1 226.9 476.1 214 463.3 204.1 447.6 197.1 430.8 188.8 411.1 185.6 389.1 189.3 367.9 194.3 336.3 210.1 306.4 233.5 284.5M472.3 364.1C451.5 371.9 429.7 376.2 408 380.6 402.6 381.7 397 384.2 394.3 389.3 389.7 398.1 391.6 409.6 398 417.1 402.8 422.1 410.3 421.9 416.7 422.4 418 419.3 419.2 415.9 422 413.9 426.4 410.3 433.3 410.7 437.4 414.6 440 416.9 440.9 420.3 441.9 423.4 452.5 423.6 463.3 423.7 473.5 420.6 478.9 419 483.7 415.5 486.5 410.6 492.3 400.8 493.3 388.9 492.3 377.8 491.7 372.7 490.6 366.9 486.2 363.8 481.9 361.1 476.7 362.6 472.3 364.1M232.2 364.2C227.8 367.5 226.9 373.4 226.3 378.5 225.6 389 226.4 400 231.5 409.4 234.1 414.4 238.7 418.3 244 420 254.5 423.6 265.8 423.5 276.7 423.4 277.6 420.3 278.4 417 280.9 414.8 284.9 410.8 291.8 410.3 296.3 413.7 299.3 415.7 300.6 419.3 302 422.4 307 422 312.2 422 316.8 419.9 320.4 418.2 322.7 414.8 324.3 411.3 327.5 404.3 327.8 395.8 324 389 321.4 384.3 316.3 381.8 311.3 380.8 289.1 376.6 266.9 371.9 245.7 364.1 241.4 362.6 236.2 361.4 232.2 364.2M386.7 558.7C375.4 562.3 363.9 565.7 352 566.3 325 568.2 297.9 565.7 271.1 562.1 267.8 561.6 264.6 561.3 261.3 561.4 261.2 562 261.1 563.4 261 564 275 568.3 289.3 571.6 303.7 574.2 324.2 578 345.2 578.7 366 577.1 373.7 576.4 381.4 575.1 388.7 572.7 392.4 571.5 396.3 569.8 398.7 566.6 401.3 563.1 398.3 557.2 394 557.2 391.5 557.1 389 558 386.7 558.7Z" fill="#fff"/><path d="M316.9 39.2C333.5 36.6 350.3 35.9 367.1 34.9 386.4 34.5 405.9 34.4 424.7 39.2 462.7 45.8 498.3 62.5 530.2 83.8 544.5 93.5 558.1 104.4 570 116.9 580.7 127.1 589.8 139 597.2 151.8 608.1 170.7 616.3 191.2 621.4 212.4 627.4 237.2 630.4 262.6 630.3 288.1 630.7 292.1 631.5 296.2 631 300.3 642 301.8 652.7 304.9 663.1 308.8 668.5 310.8 674.1 312.6 678.4 316.6 682.7 320.7 686.8 325 690 330 693.8 336.8 695.6 344.6 696.8 352.2 703.8 388.6 699 427.3 682.6 460.7 677.4 471.1 670.5 481 661.3 488.3 647 499.2 629.5 505.1 612 508 605.8 509.3 599.4 509.4 593.3 511 587.4 525.5 581.3 539.9 573.5 553.5 556.6 583.6 534.3 610.8 507.5 632.5 467 665.6 415.5 685.8 363 685.7 325.2 686.7 287.5 677.3 254.1 659.9 207.5 635.7 169.7 596.2 144.8 550.3 142.9 545.6 140.2 541.4 138.1 536.9 133.5 527.5 129.7 517.7 126 507.8 102.5 505.2 77.9 501.1 58.4 486.7 42 474.5 33.4 454.9 28.2 435.7 20.5 406.3 21.5 375.2 27.4 345.5 30.2 336.4 30.7 325.9 37.7 318.7 49.8 304.6 68.7 299.3 86.5 297.3 86.9 294.5 86.7 291.7 86.5 289 86.1 273.7 87.4 258.3 90.3 243.2 91.2 235.8 92.4 226.7 99.7 222.8 110.4 218.4 124.2 223 129.5 233.4 132.1 238.9 132.2 245.2 130.8 251 127.6 263.3 127.7 276 128 288.5 129.4 285.7 130.7 282.9 131.8 279.9 155.6 222.4 198.5 172 254 143 280.3 129.3 309.3 120.6 338.9 117.7 340.4 110.6 339.9 103.3 338.9 96.2 343.8 101.4 347.1 107.8 350.3 114.1 355.9 106.2 357.5 96.5 362 88.1 361.8 87.4 361.5 86.1 361.3 85.4 347.7 86 334 86.9 320.5 88.6 297 92.2 273.7 98.3 252 108.1 249.2 109.3 246.2 110.9 243 110.6 230.7 110 218.1 105.6 209.7 96.2 206.2 92.4 204.8 86.2 207.6 81.6 210.4 76.5 216.2 74.7 220.8 71.8 232.3 64.5 245.1 59.8 257.7 54.7 276.8 47.3 296.8 42.8 316.9 39.2M362.9 85.5C364.2 88.1 365.6 90.7 366.8 93.3 369.4 98.8 369.8 104.8 370.4 110.7 375.4 106.6 380.5 102.5 386.2 99.3 384 105.4 381.8 111.5 380.7 117.9 427.3 122 472 141.5 508 171.1 546.9 201.8 575.3 244.4 592.9 290.4 591.4 275.1 587.5 260.2 583.4 245.4 573.3 210.1 556.1 176.2 530.2 149.8 518.1 137.9 504.3 127.9 489.8 119.2 475.6 110.7 460.8 103 444.8 98.4 432.2 94.4 419.4 90.6 406.1 89.4 391.7 88.1 377.3 86.4 362.9 85.5M233.5 284.5C210.1 306.4 194.3 336.3 189.3 367.9 185.6 389.1 188.8 411.1 197.1 430.8 204.1 447.6 214 463.3 226.9 476.1 229.9 479.1 233.1 482.1 236.1 485.2 227.6 492.3 219.3 499.8 213.2 509.2 203.8 523.1 198.8 540.2 200.7 556.9 202.3 573.6 210.3 589.3 221.7 601.4 233.9 614.5 249.4 624.2 265.9 631.1 299.2 645.1 336 649 371.9 647.4 396.5 646.3 421.1 642.2 444.1 633.2 458.7 627.6 472.7 619.8 484.5 609.5 496.4 599.1 506.1 585.7 510.6 570.4 515.4 554.6 514.5 537.2 507.9 522 502.3 508.2 492.2 496.8 481 487.1 487.6 481.4 493.8 475.2 499.4 468.5 521.4 442.2 535.1 407.4 530.8 372.9 526.7 341 512 310.5 489.2 287.8 476.1 275 459.7 264.4 441.1 262.2 423.6 260.4 405.6 264.7 390.4 273.4 377.4 280.8 366.9 292.2 359.8 305.4 354.5 296.1 347.9 287.3 339.5 280.5 323 267.1 301.3 260.7 280.1 261.8 262.4 263.3 246.5 272.9 233.5 284.5Z" class="a"/><path d="M186.5 99.7C192.6 98.7 199.2 99.3 204.8 102.2 209.8 104.8 213 110.4 212.8 116 213 121.8 209.8 126.9 206.3 131.3 197.7 141.8 181.2 145.8 169.3 138.6 162.2 134.9 158.9 125.4 162 118.1 166.1 108.2 176.1 101.6 186.5 99.7Z" class="a"/><path d="M145.4 143.6C149.8 142.5 154.5 142.1 158.9 143.4 165 145.2 169.3 151.8 168 158.1 166.2 169.3 155.9 177.8 145 179.5 136.5 180.9 126.5 175.3 125.8 166.1 125.3 154.9 135.2 146 145.4 143.6Z" class="a"/><path d="M123.5 185.7C128.2 184.6 133.9 185 137.2 188.9 140.9 192.6 140.6 198.7 138.2 203.1 134.1 210.3 125.2 215.9 116.8 213.1 110.6 211.3 107.8 203.7 109.9 197.9 112.1 192 117.4 187.3 123.5 185.7Z" class="a"/><path d="M472.3 364.1C476.7 362.6 481.9 361.1 486.2 363.8 490.6 366.9 491.7 372.7 492.3 377.8 493.3 388.9 492.3 400.8 486.5 410.6 483.7 415.5 478.9 419 473.5 420.6 463.3 423.7 452.5 423.6 441.9 423.4 440.9 420.3 440 416.9 437.4 414.6 433.3 410.7 426.4 410.3 422 413.9 419.2 415.9 418 419.3 416.7 422.4 410.3 421.9 402.8 422.1 398 417.1 391.6 409.6 389.7 398.1 394.3 389.3 397 384.2 402.6 381.7 408 380.6 429.7 376.2 451.5 371.9 472.3 364.1Z" class="a"/><path d="M232.2 364.2C236.2 361.4 241.4 362.6 245.7 364.1 266.9 371.9 289.1 376.6 311.3 380.8 316.3 381.8 321.4 384.3 324 389 327.8 395.8 327.5 404.3 324.3 411.3 322.7 414.8 320.4 418.2 316.8 419.9 312.2 422 307 422 302 422.4 300.6 419.3 299.3 415.7 296.3 413.7 291.8 410.3 284.9 410.8 280.9 414.8 278.4 417 277.6 420.3 276.7 423.4 265.8 423.5 254.5 423.6 244 420 238.7 418.3 234.1 414.4 231.5 409.4 226.4 400 225.6 389 226.3 378.5 226.9 373.4 227.8 367.5 232.2 364.2Z" class="a"/><path d="M386.7 558.7C389 558 391.5 557.1 394 557.2 398.3 557.2 401.3 563.1 398.7 566.6 396.3 569.8 392.4 571.5 388.7 572.7 381.4 575.1 373.7 576.4 366 577.1 345.2 578.7 324.2 578 303.7 574.2 289.3 571.6 275 568.3 261 564 261.1 563.4 261.2 562 261.3 561.4 264.6 561.3 267.8 561.6 271.1 562.1 297.9 565.7 325 568.2 352 566.3 363.9 565.7 375.4 562.3 386.7 558.7Z" class="a"/></svg>